<svg xmlns="http://www.w3.org/2000/svg" viewBox="0 0 512 512">
  <defs>
    <linearGradient id="bg" x1="0%" y1="0%" x2="100%" y2="100%">
      <stop offset="0%" style="stop-color:#6C5CE7"/>
      <stop offset="100%" style="stop-color:#a855f7"/>
    </linearGradient>
  </defs>
  <!-- 丸い背景 -->
  <circle cx="256" cy="256" r="256" fill="url(#bg)"/>
  <!-- 脳のシルエット（左半球） -->
  <path d="M256 120c-12 0-24 2-24 2
    c-40 6-68 30-80 58
    c-8 18-10 38-6 56
    c-16 8-28 24-30 44
    c-2 22 8 42 26 54
    c-2 10 0 22 6 32
    c10 18 30 28 50 26
    c8 8 20 14 34 16
    c4 0 10 0 14 0
    c4 0 8-2 10-2
    V120z"
    fill="rgba(255,255,255,0.95)"
    transform="translate(20, 0)"/>
  <!-- 脳のシルエット（右半球） -->
  <path d="M256 120c12 0 24 2 24 2
    c40 6 68 30 80 58
    c8 18 10 38 6 56
    c16 8 28 24 30 44
    c2 22-8 42-26 54
    c2 10 0 22-6 32
    c-10 18-30 28-50 26
    c-8 8-20 14-34 16
    c-4 0-10 0-14 0
    c-4 0-8-2-10-2
    V120z"
    fill="rgba(255,255,255,0.85)"
    transform="translate(-20, 0)"/>
  <!-- 脳の溝（左） -->
  <path d="M200 180 Q180 220 200 260 Q180 290 195 320"
    stroke="rgba(108,92,231,0.5)" stroke-width="6" fill="none" stroke-linecap="round"
    transform="translate(20, 0)"/>
  <!-- 脳の溝（右） -->
  <path d="M312 180 Q332 220 312 260 Q332 290 317 320"
    stroke="rgba(108,92,231,0.5)" stroke-width="6" fill="none" stroke-linecap="round"
    transform="translate(-20, 0)"/>
  <!-- クエスチョンマーク -->
  <text x="256" y="310" text-anchor="middle" font-family="Arial, sans-serif"
    font-size="160" font-weight="900" fill="#6C5CE7" opacity="0.6">?</text>
</svg>
