<svg xmlns="http://www.w3.org/2000/svg" viewBox="0 0 192 192">
  <defs>
    <linearGradient id="bg192" x1="0%" y1="0%" x2="100%" y2="100%">
      <stop offset="0%" style="stop-color:#6C5CE7"/>
      <stop offset="100%" style="stop-color:#a855f7"/>
    </linearGradient>
  </defs>
  <!-- 丸い背景（maskable 用に余白を確保） -->
  <rect width="192" height="192" rx="40" fill="url(#bg192)"/>
  <!-- 脳のシルエット（左半球） -->
  <path d="M96 42c-5 0-9 1-9 1
    c-15 2-26 11-30 22
    c-3 7-4 14-2 21
    c-6 3-11 9-12 17
    c-1 8 3 16 10 20
    c-1 4 0 8 2 12
    c4 7 12 11 19 10
    c3 3 8 5 13 6
    c2 0 4 0 6 0
    c1 0 2-1 3-1
    V42z"
    fill="rgba(255,255,255,0.95)"
    transform="translate(8, 2)"/>
  <!-- 脳のシルエット（右半球） -->
  <path d="M96 42c5 0 9 1 9 1
    c15 2 26 11 30 22
    c3 7 4 14 2 21
    c6 3 11 9 12 17
    c1 8-3 16-10 20
    c1 4 0 8-2 12
    c-4 7-12 11-19 10
    c-3 3-8 5-13 6
    c-2 0-4 0-6 0
    c-1 0-2-1-3-1
    V42z"
    fill="rgba(255,255,255,0.85)"
    transform="translate(-8, 2)"/>
  <!-- 脳の溝（左） -->
  <path d="M75 66 Q67 81 75 96 Q67 108 73 120"
    stroke="rgba(108,92,231,0.5)" stroke-width="2.5" fill="none" stroke-linecap="round"
    transform="translate(8, 2)"/>
  <!-- 脳の溝（右） -->
  <path d="M117 66 Q125 81 117 96 Q125 108 119 120"
    stroke="rgba(108,92,231,0.5)" stroke-width="2.5" fill="none" stroke-linecap="round"
    transform="translate(-8, 2)"/>
  <!-- クエスチョンマーク -->
  <text x="96" y="118" text-anchor="middle" font-family="Arial, sans-serif"
    font-size="60" font-weight="900" fill="#6C5CE7" opacity="0.6">?</text>
</svg>
